<svg xmlns="http://www.w3.org/2000/svg"  viewBox="0 0 50 50" width="400px" height="400px" baseProfile="basic"><polygon fill="#577be6" points="21,41.166 3,30.776 3,23.853 29,8.834 47,19.224 47,26.155"/><polygon fill="#4460b3" points="21,41.167 21,34.24 47,19.224 47,26.155"/><polygon fill="#6189ff" points="21,41.167 3,30.775 3,23.848 21,34.24"/><polygon fill="#4460b3" points="30,24.424 22,19.805 19,21.537 27,26.156"/><polygon fill="#4460b3" points="32.002,18.65 30.001,18.171 28.001,18.65 27.172,19.804 28.001,20.959 30.001,21.438 32.002,20.959 32.83,19.804"/><polygon fill="#479db3" points="21,36.55 21,38.858 31,33.084 31,30.775"/><polygon fill="#e64e4e" points="47,23.847 43,26.156 43,23.847 47,21.537"/><polygon fill="#e6903a" points="43,26.156 39,28.466 39,26.156 43,23.847"/><polygon fill="#57e66e" points="39,28.466 35,30.775 35,28.466 39,26.156"/><polygon fill="#e6e04e" points="35,30.775 31,33.084 31,30.775 35,28.466"/><polygon fill="#66e1ff" points="5,27.312 5,29.62 21,38.858 21,36.55"/></svg>