<svg xmlns="http://www.w3.org/2000/svg"  viewBox="0 0 50 50" width="150px" height="150px" baseProfile="basic"><polygon fill="#6189ff" points="38,17.494 27,6.525 16,4.793 12,7.102 8,17.494 12,32.506 23,43.475 34,45.207 38,42.898 42,32.506"/><polygon fill="#577be6" points="12,7.102 16,4.793 27,6.525 23,8.834"/><polygon fill="#5274d9" points="34,19.804 38,17.494 27,6.525 23,8.834"/><polygon fill="#4460b3" points="34,45.207 38,42.898 42,32.506 38,34.815"/><polygon fill="#4967bf" points="34,19.804 38,17.494 42,32.506 38,34.815"/><polygon fill="#e6e6e6" points="21,41.48 21,30.774 18,29.041 18,24.423 21,26.155 21,20.381 24,18.649 29,21.536 29,26.155 25,23.845 25,28.464 29,30.774 28,34.815 25,33.083 25,43.79 23,43.475"/></svg>