<svg xmlns="http://www.w3.org/2000/svg"  viewBox="0 0 50 50" width="400px" height="400px" baseProfile="basic"><polygon fill="#fff957" points="42,32.51 38,42.9 34,45.21 23,43.48 12,32.51 8,17.49 12,7.1 16,4.79 27,6.52 36,15.181 29,19.231 23,13.45 17.91,12.72 16,17.49 19,28.46 27,36.55 32.09,37.28 33.25,34.38 25,29.62 25,25 29,22.69 41.27,29.78"/><polygon fill="#e64e4e" points="12,7.102 16,4.793 27,6.525 23,8.834"/><polygon fill="#d94a4a" points="32,17.494 36,15.185 27,6.525 23,8.834"/><polygon fill="#4460b3" points="34,45.207 38,42.898 42,32.506 38,34.815"/><polygon fill="#ff5757" points="23,13.453 29,19.226 32,17.494 23,8.834 12,7.102 15,12.298"/><polygon fill="#577be6" points="37.271,32.085 25,25 29,22.691 41.271,29.776"/><polygon fill="#6189ff" points="38,34.815 25,27.309 25,29.619 33.247,34.38 31,40.011 34,45.207 36.545,38.594"/><polygon fill="#52d969" points="15,30.773 19,28.464 27,36.547 23,38.856"/><polygon fill="#57e66f" points="31,40.011 32.091,37.282 27,36.547 23,38.856"/><polygon fill="#61ff7b" points="15,30.773 12,32.506 23,43.475 34,45.207 31,40.011 23,38.856"/><polygon fill="#ccc746" points="12,19.804 16,17.494 19,28.464 15,30.773"/><polygon fill="#b3ae3d" points="12,19.804 16,17.494 17.909,12.718 15,12.298"/><polygon fill="#6189ff" points="38,34.815 37.271,32.085 25,25 25,27.309"/><polygon fill="#4d6dcc" points="41.271,29.776 42,32.506 38,34.815 37.271,32.085"/></svg>