<svg xmlns="http://www.w3.org/2000/svg"  viewBox="0 0 50 50" width="400px" height="400px" baseProfile="basic"><polygon fill="#6189ff" points="16,2.483 10.002,5.946 10,5.945 10,33.66 34.001,47.516 40.001,44.052 40,16.34"/><polygon fill="#577be6" points="40,16.34 16,2.483 10,5.947 34,19.804"/><polygon fill="#4460b3" points="34,19.804 34.001,47.516 40.001,44.052 40,16.34"/><polygon fill="#e6e6e6" points="15,13.453 14,14.03 14,15.185 15,16.917 16,17.494 17,16.917 17,15.762 16,14.03"/><polygon fill="#e6e6e6" points="14,18.649 14,31.351 17,33.083 17,20.381"/><polygon fill="#e6e6e6" points="28,26.732 24,24.423 22,25.577 22,23.268 19,21.536 19,34.238 22,35.97 22,27.887 23,27.309 26,29.041 27,30.773 27,38.856 30,40.588 30,30.196"/></svg>