<svg xmlns="http://www.w3.org/2000/svg"  viewBox="0 0 50 50" width="400px" height="400px" baseProfile="basic"><polygon fill="#66e1ff" points="41,29.62 41,43.48 35,46.94 10,32.51 10,5.95 12,4.79 37,19.23 37,27.31"/><polygon fill="#61d6f2" points="39,42.32 37,41.166 37,29.619 39,30.774"/><polygon fill="#5ccbe6" points="37,19.227 35,20.381 10,5.947 12,4.793"/><polygon fill="#479db3" points="39,30.774 39,42.32 37,43.475 37,19.226 35,20.381 35,46.939 41,43.475 41,29.619"/><polygon fill="#57bfd9" points="39,42.321 37,41.166 37,43.475"/><polygon fill="#57bfd9" points="37,29.619 37,27.309 41,29.619 39,30.774"/><polygon fill="#4da9bf" points="13,11.144 32,22.113 32,24.423 13,13.453"/><polygon fill="#4da9bf" points="13,16.917 32,27.887 32,30.196 13,19.226"/><polygon fill="#4da9bf" points="23,34.238 32,39.434 32,41.743 23,36.547"/><polygon fill="#4da9bf" points="13,22.691 20,26.732 20,34.815 13,30.774"/><polygon fill="#4da9bf" points="23,28.464 32,33.66 32,35.97 23,30.774"/></svg>