<svg xmlns="http://www.w3.org/2000/svg"  viewBox="0 0 50 50" width="150px" height="150px" baseProfile="basic"><polygon fill="#ff5757" points="38,17.494 27,6.525 16,4.793 12,7.102 8,17.494 12,32.506 23,43.475 34,45.207 38,42.898 42,32.506"/><polygon fill="#e6e6e6" points="23.85,15.645 18.75,12.701 13.65,15.756 13.65,23.756 17.05,29.719 17.9,27.21 16.2,23.229 16.2,19.229 20.45,16.682 24.7,19.136 28.95,26.59 28.95,31.59 26.4,35.118 23.85,33.645 22.15,30.664 23.85,24.645 23,22.155 20.45,20.682 18.75,22.701 19.6,27.192 17.9,34.21 17.9,38.389 19.191,39.677 20.472,36.703 21.3,33.173 23,36.155 28.1,39.099 32.35,35.553 32.35,26.553 27.25,17.608"/><polygon fill="#e64e4e" points="12,7.102 16,4.793 27,6.525 23,8.834"/><polygon fill="#d94a4a" points="34,19.804 38,17.494 27,6.525 23,8.834"/><polygon fill="#b33d3d" points="34,45.207 38,42.898 42,32.506 38,34.815"/><polygon fill="#bf4141" points="34,19.804 38,17.494 42,32.506 38,34.815"/></svg>