<svg xmlns="http://www.w3.org/2000/svg"  viewBox="0 0 50 50" width="150px" height="150px" baseProfile="basic"><path fill="#ccc" d="M40,23.27l-3-1.73l4-2.31v-2.31l-2-3.47l-2-1.15l-2,1.15l-1-0.57l-2-4.62l-4-2.31l-7,4.04v1.15	l-2-1.15l-2,1.15l-1-1.73l-3-1.73l-6,3.46v3.47l1,1.73v9.24l7,10.97l14,8.08l8-2.31l4-2.31v-9.24l1-0.57v-3.47L40,23.27z M27,14.61	V12.3l1.33,3.08L27,14.61z"/><polygon fill="#ff5757" points="18,20.959 16,19.804 15,20.381 15,22.691 16,24.423 18,25.577 19,25 19,22.691"/><polygon fill="#ff5757" points="28,26.732 26,25.577 25,26.155 25,28.464 26,30.196 28,31.351 29,30.774 29,28.464"/><polygon fill="#737373" points="22,33.66 16,29.041 18,32.506 22,35.97 26,37.124 28,35.97"/><polygon fill="#a8a8a8" points="33,14.608 37,12.298 39,13.453 35,15.762"/><polygon fill="#999" points="30,15.185 34,12.876 35,13.453 31,15.762"/><polygon fill="#8c8c8c" points="30,15.185 34,12.876 32,8.257 28,10.566"/><polygon fill="#a8a8a8" points="24,8.257 28,5.947 32,8.257 28,10.566"/><rect width="4.619" height="4" x="35.691" y="14.34" fill="#8c8c8c" transform="rotate(-30 37.999 16.341)"/><rect width="4.619" height="2" x="12.191" y="10.432" fill="#8c8c8c" transform="rotate(-30 14.5 11.433)"/><polygon fill="#a8a8a8" points="9,9.989 13,7.679 16,9.412 12,11.721"/><polygon fill="gray" points="37,19.226 41,16.917 41,19.226 37,21.536"/><rect width="4.619" height="4" x="36.691" y="24.155" fill="#8c8c8c" transform="rotate(-30 38.998 26.156)"/><polygon fill="#a8a8a8" points="36,25.577 40,23.268 37,21.536 33,23.845"/><polygon fill="#8c8c8c" points="31.667,24.615 35,22.691 33,21.536 31.499,18.938 29,20.381"/><polygon fill="gray" points="38,29.041 42,26.732 42,30.196 38,32.506"/><polygon fill="#737373" points="37,33.083 41,30.774 41,40.011 37,42.321"/><polygon fill="#737373" points="23,12.298 25,11.144 27,12.298 27,14.608 23,16.917"/><polygon fill="#a8a8a8" points="27,14.608 28.333,15.377 29,16.917 31,18.072 31.499,18.938 29,20.381 23,16.917"/><polygon fill="#a8a8a8" points="19,9.989 21,11.144 21,15.762 15,12.298"/></svg>