<svg xmlns="http://www.w3.org/2000/svg"  viewBox="0 0 50 50" width="400px" height="400px" baseProfile="basic"><polygon fill="#ff5757" points="38,17.494 27,6.525 16,4.793 12,7.102 8,17.494 12,32.506 23,43.475 34,45.207 38,42.898 42,32.506"/><polygon fill="#e6e6e6" points="18.75,15.701 18.75,27.701 17.9,28.21 16.2,27.229 15.35,25.738 15.35,19.738 12.8,18.266 12.8,26.266 14.5,29.247 19.6,32.192 21.3,31.173 21.3,19.173 22.15,18.664 23.85,19.645 24.7,21.136 24.7,25.136 25.55,26.627 26.4,27.118 27.25,26.608 27.25,20.608 25.55,17.627 20.45,14.682"/><polygon fill="#e6e6e6" points="30.65,28.571 30.65,34.571 29.8,35.081 28.1,34.099 27.25,32.608 27.25,29.108 26.4,29.118 25.55,28.627 24.7,27.636 24.7,33.136 26.4,36.118 31.5,39.062 33.2,38.044 33.2,30.044"/><polygon fill="#e64e4e" points="12,7.102 16,4.793 27,6.525 23,8.834"/><polygon fill="#d94a4a" points="34,19.804 38,17.494 27,6.525 23,8.834"/><polygon fill="#b33d3d" points="34,45.207 38,42.898 42,32.506 38,34.815"/><polygon fill="#bf4141" points="34,19.804 38,17.494 42,32.506 38,34.815"/></svg>