<svg xmlns="http://www.w3.org/2000/svg"  viewBox="0 0 50 50" width="150px" height="150px" baseProfile="basic"><polygon fill="#66e1ff" points="38,24.42 41,25 39,27.31 39,35.39 34,40.59 30,42.9 23,43.48 14,39.43 8,32.51 11.66,30.39 10,25.58 11.2,24.89 10,23.27 8,17.49 9.6,16.57 9,15.76 8,11.72 9,7.68 12.94,5.41 17,12.3 22.94,19.26 23,19.23 30,15.19 34.94,16.95 38,20.96 42,20.96 40,23.27"/><polygon fill="#57bfd9" points="13,14.608 17,12.298 22.936,19.262 19,21.536"/><polygon fill="#52b4cc" points="13,14.608 17,12.298 12.936,5.405 9,7.679"/><polygon fill="#5ccae6" points="26,17.494 30,15.185 34.936,16.952 31,19.226"/><polygon fill="#52b4cc" points="34,23.268 38,20.959 34.936,16.952 31,19.226"/><polygon fill="#5ccae6" points="34,23.268 38,20.959 42,20.959 38,23.268"/><polygon fill="#57bfd9" points="34,26.732 38,24.423 41,25 37,27.309"/><polygon fill="#4da9bf" points="35,29.619 39,27.309 39,35.392 35,37.702"/><polygon fill="#479db3" points="30,42.898 34,40.588 39,35.392 35,37.702"/><polygon fill="#479db3" points="36,25.577 40,23.268 42,20.959 38,23.268"/><polygon fill="#5ccae6" points="23,23.845 23,19.226 19,21.536"/><polygon fill="#5ccae6" points="8,32.506 11.665,30.39 12,31.351 14.249,33.517 13,34.238"/><polygon fill="#57bfd9" points="15,34.238 14.249,33.517 13,34.238"/><polygon fill="#5ccae6" points="10,25.577 11.199,24.885 13,27.309"/><polygon fill="#5ccae6" points="8,17.494 9.6,16.571 12,19.804"/><polygon fill="#479db3" points="41,25 39,27.309 35,29.619 37,27.309"/></svg>