<svg xmlns="http://www.w3.org/2000/svg"  viewBox="0 0 50 50" width="400px" height="400px" baseProfile="basic"><polygon fill="#ff5757" points="13.001,12.298 9.004,14.606 9.001,14.604 9,31.928 37,48.094 41,45.785 41,28.464"/><polygon fill="#e64e4e" points="41,28.464 13.001,12.298 9.001,14.607 37,30.774"/><polygon fill="#6189ff" points="33,15.762 32,16.34 32,15.185 30,14.03 28,15.185 28,12.921 23,10.034 21.397,10.923 23,5.37 21,4.22 19.4,5.14 19,3.06 17,1.91 15,3.06 17,12.3 17,18.07 19,19.23 21,18.07 21,20.427 26,23.313 28,22.204 28,24.468 33,27.355 33,27.355 35,26.155 35,16.917"/><polygon fill="#b33d3d" points="37,30.774 37,48.094 41,45.785 41,28.464"/><polygon fill="#e6e6e6" points="18,22.113 12,18.649 12,20.959 14,22.022 14,22.022 14,32.506 16.024,33.647 16.003,23.179 18,24.423"/><polygon fill="#e6e6e6" points="20,26.687 20,33.66 19,33.083 19,26.109 17,24.955 17,34.238 22,37.124 22,27.887"/><path fill="#e6e6e6" d="M25,29.619v-3.464l0,0L23,25v12.702l5,2.887v-9.238L25,29.619z M26,37.124l-1-0.577v-4.619l1,0.577	V37.124z"/><path fill="#e6e6e6" d="M34,40.588v-5.773l-5-2.887v9.238l5,2.887v-2.309l-3-1.732v-1.155L34,40.588z M31,35.392l1,0.577	v1.155l-1-0.577V35.392z"/><polygon fill="#577be6" points="15,3.061 17,1.906 19,3.061 17,4.215"/><polygon fill="#4d6dcc" points="18,9.412 19,5.37 19.4,5.139 19,3.061 17,4.215"/><polygon fill="#577be6" points="19,5.37 21,4.215 23,5.37 21,6.525"/><polygon fill="#4460b3" points="19,13.453 21,12.298 21,11.144 21.397,10.923 23,5.37 21,6.525"/><polygon fill="#4967bf" points="19,13.453 21,12.298 21,18.072 19,19.226"/><polygon fill="#577be6" points="21,11.144 23,10.034 28,12.921 26,14.076"/><polygon fill="#4460b3" points="26,23.313 28,22.204 28,12.921 26,14.076"/><polygon fill="#4460b3" points="23,19.272 24,18.694 24,15.231 23,14.653"/><polygon fill="#577be6" points="24,18.694 24,19.849 23,19.272"/><polygon fill="#577be6" points="28,15.185 30,14.03 32,15.185 30,16.34"/><polygon fill="#577be6" points="31,16.917 33,15.762 35,16.917 33,18.072"/><polygon fill="#4460b3" points="33,27.355 35,26.155 35,16.917 33,18.072"/><polygon fill="#4460b3" points="30,23.313 31,22.735 31,16.917 32,16.34 32,15.185 30,16.34"/><polygon fill="#577be6" points="31,22.735 31,23.891 30,23.313"/></svg>